# xmcd
#
# Track frame offsets:
#	150
#	26708
#	39924
#	53408
#	65254
#	76428
#	95011
#	112920
#	127047
#	141739
#	156434
#	173373
#	203031
#	218238
#	238673
#	248645
#
# Disc length: 3458
#
# Revision: 2
# Processed by: cddbd v1.5.1PL0 Copyright (c) Steve Scherf et al.
# Submitted via: EasyCDDAExtractor 4.5.0.2
# Normalized: r0:TDELIM( - ),TSWAP
#
DISCID=d90d8010
DTITLE=LOVE Volume 2 ALL TIme Romantic Hits
DYEAR=1900
DGENRE=
TTITLE0=BILLY PAUL and HAROLD MELVIN - ME and Mrs JONES
TTITLE1=BARRY RYAN - DON'T BRING ME YOUR HEADACHES
TTITLE2=THE FOUNDATIONS - BABY NOW THAT I FOUND YOU
TTITLE3=TINA TURNER - STAND BY YOUR MAN
TTITLE4=THE THREE DEGREES - TAKE GOOD CARE OF YOURSELF
TTITLE5=LOU RAWLS - LADY LOVE
TTITLE6=BROOK BENTON - RAINY NIGHT IN GEORGIA
TTITLE7=FRANCIS NERO - DO YOU KNOW WHERE YOU'RE GOING TO
TTITLE8=MIDDLE OF THE ROAD - SOLEY SOLEY
TTITLE9=TOM JONES - UNCHAINED MELODY
TTITLE10=DRIFTERS - STAND BY ME
TTITLE11=ROSE ROYCE - I WANNA GET NEXT TO YOU
TTITLE12=NEIL SEDAKA - LAUGHTER IN THE RAIN
TTITLE13=LOU RAWLS - SEND IN THE CLOWNS
TTITLE14=TOM JONES - SPANISH HARLEM
TTITLE15=PETULLA CLARK - STRANGERS IN THE NIGHT
EXTD=
EXTT0=
EXTT1=
EXTT2=
EXTT3=
EXTT4=
EXTT5=
EXTT6=
EXTT7=
EXTT8=
EXTT9=
EXTT10=
EXTT11=
EXTT12=
EXTT13=
EXTT14=
EXTT15=
PLAYORDER=
